<svg id="Layer_1" data-name="Layer 1" xmlns="http://www.w3.org/2000/svg" viewBox="0 0 216 117"><defs><style>.cls-1{fill:#dd1a22;}</style></defs><title>Cycling Weekly Simba Art File</title><path class="cls-1" d="M201.86,78.38a10.67,10.67,0,0,1-5.94,2c-2.71,0-4.13-1.19-4.13-3.84V36.25c0-2.78,1.42-4,4.13-4a9.88,9.88,0,0,1,5.94,2.12Zm11.24-55.91H201.86v3.71c-2.58-2.25-5.94-4.5-10.59-4.5h-.13c-7,0-10.72,4.5-10.72,11.79V78.91c0,7.42,3.74,11.79,10.72,11.79h.13a15.18,15.18,0,0,0,10.59-4.37V97.46c0,2.39-1,3.71-3.49,3.71H194.5c-2.45,0-3.49-1.32-3.49-3.71V94.28H180.68v4.11c0,8.35,3.75,12.06,11.88,12.06h7.36c8.91,0,13.17-4.24,13.17-13.51Zm-69,74.19h11.36V34.27a11,11,0,0,1,6.07-2c2.58,0,3.74,1.19,3.74,3.71V96.67h11.24V32.54c0-7-3.36-10.86-9.81-10.86h-.52c-4.78,0-8,2.25-10.85,4.9V22.48H144.07Zm-15.15,0h11.36V22.48H128.92Zm-.13-79.75h11.75V5.65H128.79ZM113.54,96.67H124.9V3H113.54ZM98.06,52.42h11.24V35.59q0-13.91-13.56-13.91H91c-9,0-13.69,4.77-13.69,14V83.42c0,9.27,4.65,14,13.69,14h4.78c9,0,13.56-4.77,13.56-14V64.87H98.19V82.76c0,2.78-1.29,4.24-4,4.24H92.63c-2.71,0-4-1.46-4-4.24V36.39c0-2.78,1.29-4.11,4-4.11h1.42c2.71,0,4,1.33,4,4.11Zm-37.72,57.5L75.7,22.48H64.86l-6.72,46-5.81-46H41L52.72,94.41l-3.23,15.5ZM26.37,58V82c0,3.18-1.55,4.64-4.52,4.64H19.53C16.43,86.6,15,85.14,15,82V18.63C15,15.45,16.43,14,19.53,14H21.6c3.1,0,4.52,1.46,4.52,4.64V40.23H37.87V18C37.87,8,33.09,3.13,23.4,3.13H17.59C7.78,3.13,3,8,3,18.1V82.49c0,10.07,4.78,15,14.59,15h5.94c9.81,0,14.59-4.9,14.59-15V58Z"/><path class="cls-1" d="M169.6,114.42H172v-5.76l4.08-8.55h-2.51l-2.73,6-2.73-6h-2.55l4.08,8.57Zm-8.67,0h7.24v-2h-4.89V100.11h-2.36Zm-11,0h2.36v-4.11l1.33-2,3.32,6.09h2.7l-4.36-8.18,4.14-6.13h-2.73L152.28,107v-6.85h-2.36Zm-9.4,0h7.79v-2h-5.45v-4.15h4.78v-2h-4.78v-4h5.37v-2h-7.7Zm-9.28,0H139v-2h-5.45v-4.15h4.78v-2h-4.78v-4h5.37v-2h-7.7Zm-14.47.08H119l2.42-9.91,2.4,9.91h2.27l3.47-14.39h-2.42l-2.23,10.16-2.42-10.18h-2.09L118,110.27l-2.23-10.16H113.3Z"/></svg>